<?xml version="1.0" encoding="UTF-8"?>
<!DOCTYPE svg PUBLIC "-//W3C//DTD SVG 1.1//EN" "http://www.w3.org/Graphics/SVG/1.1/DTD/svg11.dtd">
<svg xmlns="http://www.w3.org/2000/svg" version="1.1" width="614px" height="256px" style="shape-rendering:geometricPrecision; text-rendering:geometricPrecision; image-rendering:optimizeQuality; fill-rule:evenodd; clip-rule:evenodd" xmlns:xlink="http://www.w3.org/1999/xlink">
<g><path style="opacity:0.999" fill="#5165f6" d="M 117.5,-0.5 C 243.5,-0.5 369.5,-0.5 495.5,-0.5C 522.975,1.632 549.642,7.79866 575.5,18C 588.19,23.2619 599.023,31.0953 608,41.5C 610.326,45.0167 612.16,48.6834 613.5,52.5C 613.5,102.5 613.5,152.5 613.5,202.5C 610.401,211.131 605.068,218.297 597.5,224C 579.294,236.409 559.294,244.742 537.5,249C 523.449,251.791 509.449,253.958 495.5,255.5C 369.5,255.5 243.5,255.5 117.5,255.5C 89.2362,253.41 61.9029,246.91 35.5,236C 19.0509,229.377 7.05091,218.21 -0.5,202.5C -0.5,152.5 -0.5,102.5 -0.5,52.5C 7.05091,36.7899 19.0509,25.6232 35.5,19C 61.9029,8.09025 89.2362,1.59025 117.5,-0.5 Z"/></g>
<g><path style="opacity:1" fill="#fdfefe" d="M 125.5,51.5 C 126.873,51.3433 128.207,51.51 129.5,52C 131.24,56.0044 133.573,59.5044 136.5,62.5C 150.479,59.9343 164.479,59.9343 178.5,62.5C 179.167,62.1667 179.833,61.8333 180.5,61.5C 182.012,57.7991 184.012,54.4658 186.5,51.5C 200.234,54.3556 213.567,58.5222 226.5,64C 251.294,98.677 260.961,137.177 255.5,179.5C 240.889,190.139 224.889,198.139 207.5,203.5C 205.617,203.124 204.117,202.124 203,200.5C 200.5,196.167 198,191.833 195.5,187.5C 200.275,184.61 205.275,181.943 210.5,179.5C 211.359,177.461 210.526,176.128 208,175.5C 174.313,190.143 140.646,190.143 107,175.5C 104.474,176.128 103.641,177.461 104.5,179.5C 109.725,181.943 114.725,184.61 119.5,187.5C 116.918,192.333 114.085,197 111,201.5C 110.044,202.894 108.711,203.561 107,203.5C 89.8413,198.004 74.008,190.004 59.5,179.5C 54.0358,137.19 63.7025,98.6901 88.5,64C 100.587,58.6936 112.921,54.5269 125.5,51.5 Z"/></g>
<g><path style="opacity:1" fill="#fbfbfe" d="M 280.5,104.5 C 282.84,105.086 285.007,106.086 287,107.5C 287.499,112.823 287.666,118.156 287.5,123.5C 289.857,123.663 292.19,123.497 294.5,123C 296.167,120.667 297.833,118.333 299.5,116C 301.81,115.503 304.143,115.337 306.5,115.5C 305.209,119.646 303.209,123.479 300.5,127C 303.209,130.521 305.209,134.354 306.5,138.5C 304.143,138.663 301.81,138.497 299.5,138C 297.833,135.667 296.167,133.333 294.5,131C 292.19,130.503 289.857,130.337 287.5,130.5C 287.5,133.167 287.5,135.833 287.5,138.5C 285.167,138.5 282.833,138.5 280.5,138.5C 280.5,127.167 280.5,115.833 280.5,104.5 Z"/></g>
<g><path style="opacity:1" fill="#fdfdfe" d="M 465.5,104.5 C 472.044,105.709 474.377,109.709 472.5,116.5C 490.404,113.081 497.071,120.414 492.5,138.5C 490.167,138.5 487.833,138.5 485.5,138.5C 485.666,133.821 485.499,129.155 485,124.5C 481.036,122.176 476.87,121.843 472.5,123.5C 472.5,128.5 472.5,133.5 472.5,138.5C 470.167,138.5 467.833,138.5 465.5,138.5C 465.5,127.167 465.5,115.833 465.5,104.5 Z"/></g>
<g><path style="opacity:1" fill="#fbfbfe" d="M 530.5,104.5 C 532.84,105.086 535.007,106.086 537,107.5C 537.499,112.823 537.666,118.156 537.5,123.5C 539.857,123.663 542.19,123.497 544.5,123C 546.167,120.667 547.833,118.333 549.5,116C 551.81,115.503 554.143,115.337 556.5,115.5C 555.209,119.646 553.209,123.479 550.5,127C 553.209,130.521 555.209,134.354 556.5,138.5C 554.143,138.663 551.81,138.497 549.5,138C 547.833,135.667 546.167,133.333 544.5,131C 542.19,130.503 539.857,130.337 537.5,130.5C 537.5,133.167 537.5,135.833 537.5,138.5C 535.167,138.5 532.833,138.5 530.5,138.5C 530.5,127.167 530.5,115.833 530.5,104.5 Z"/></g>
<g><path style="opacity:1" fill="#fafafe" d="M 513.5,108.5 C 514.5,108.5 515.5,108.5 516.5,108.5C 516.5,116.167 516.5,123.833 516.5,131.5C 519.167,131.5 521.833,131.5 524.5,131.5C 524.5,133.833 524.5,136.167 524.5,138.5C 515.5,138.5 506.5,138.5 497.5,138.5C 497.5,136.167 497.5,133.833 497.5,131.5C 501.167,131.5 504.833,131.5 508.5,131.5C 508.666,127.486 508.499,123.486 508,119.5C 505.414,121.545 502.58,123.211 499.5,124.5C 498.353,122.235 498.186,119.902 499,117.5C 503.981,114.6 508.815,111.6 513.5,108.5 Z"/></g>
<g><path style="opacity:1" fill="#5366f6" d="M 119.5,115.5 C 135.898,115.734 143.398,124.068 142,140.5C 136.154,155.416 126.321,158.916 112.5,151C 104.189,139.976 104.522,129.31 113.5,119C 115.727,118.059 117.727,116.892 119.5,115.5 Z"/></g>
<g><path style="opacity:1" fill="#5366f6" d="M 185.5,115.5 C 202.65,115.15 210.15,123.483 208,140.5C 204.886,151.981 197.386,156.815 185.5,155C 175.917,149.669 171.751,141.502 173,130.5C 175.211,123.796 179.378,118.796 185.5,115.5 Z"/></g>
<g><path style="opacity:1" fill="#f7f7fe" d="M 316.5,115.5 C 321.844,115.334 327.177,115.501 332.5,116C 334.25,117.754 334.917,119.921 334.5,122.5C 329.178,122.02 323.845,121.687 318.5,121.5C 318.5,122.5 318.5,123.5 318.5,124.5C 323.267,124.191 327.934,124.691 332.5,126C 337.159,131.367 336.159,135.367 329.5,138C 323.833,138.667 318.167,138.667 312.5,138C 310.75,136.246 310.083,134.079 310.5,131.5C 316.2,132.248 321.867,132.248 327.5,131.5C 323.878,130.675 320.211,130.175 316.5,130C 311.857,127.928 310.357,124.428 312,119.5C 313.397,117.93 314.897,116.596 316.5,115.5 Z"/></g>
<g><path style="opacity:1" fill="#f8f8fe" d="M 362.5,131.5 C 364.308,132.918 364.975,134.918 364.5,137.5C 358.582,138.621 352.582,138.788 346.5,138C 344.376,136.878 342.543,135.378 341,133.5C 338.641,117.545 345.475,111.711 361.5,116C 366.728,118.913 367.728,122.913 364.5,128C 359.279,129.232 353.946,129.899 348.5,130C 353.036,131.379 357.703,131.879 362.5,131.5 Z"/></g>
<g><path style="opacity:1" fill="#f8f8fe" d="M 379.5,115.5 C 383.846,115.334 388.179,115.501 392.5,116C 398.908,119.323 401.075,124.489 399,131.5C 397.878,133.624 396.378,135.457 394.5,137C 389.618,138.555 384.618,138.888 379.5,138C 376.804,137.31 374.637,135.81 373,133.5C 372.333,129.167 372.333,124.833 373,120.5C 374.805,118.174 376.972,116.508 379.5,115.5 Z"/></g>
<g><path style="opacity:1" fill="#fcfcfe" d="M 404.5,115.5 C 411.091,115.632 417.758,115.798 424.5,116C 427.583,116.786 429.749,118.619 431,121.5C 431.499,127.157 431.666,132.824 431.5,138.5C 429.167,138.5 426.833,138.5 424.5,138.5C 424.666,133.821 424.499,129.155 424,124.5C 420.036,122.176 415.87,121.843 411.5,123.5C 411.5,128.5 411.5,133.5 411.5,138.5C 409.167,138.5 406.833,138.5 404.5,138.5C 404.5,130.833 404.5,123.167 404.5,115.5 Z"/></g>
<g><path style="opacity:1" fill="#f9f9fe" d="M 442.5,115.5 C 447.844,115.334 453.177,115.501 458.5,116C 459.423,118.041 459.756,120.208 459.5,122.5C 455.154,122.334 450.821,122.501 446.5,123C 443.694,124.305 442.86,126.472 444,129.5C 444.75,130.126 445.584,130.626 446.5,131C 450.821,131.499 455.154,131.666 459.5,131.5C 459.756,133.792 459.423,135.959 458.5,138C 452.388,138.909 446.388,138.576 440.5,137C 439.333,135.833 438.167,134.667 437,133.5C 436.333,129.167 436.333,124.833 437,120.5C 438.73,118.598 440.563,116.931 442.5,115.5 Z"/></g>
<g><path style="opacity:1" fill="#5668f6" d="M 349.5,121.5 C 352.978,121.184 356.312,121.684 359.5,123C 356.298,124.483 352.964,124.817 349.5,124C 348.402,123.23 348.402,122.397 349.5,121.5 Z"/></g>
<g><path style="opacity:1" fill="#5266f6" d="M 382.5,122.5 C 385.545,122.508 388.545,122.841 391.5,123.5C 391.5,125.833 391.5,128.167 391.5,130.5C 387.741,131.908 384.075,131.742 380.5,130C 378.84,126.777 379.506,124.277 382.5,122.5 Z"/></g>
<g><path style="opacity:1" fill="#a3abfa" d="M 362.5,131.5 C 363.209,130.596 364.209,130.263 365.5,130.5C 365.802,133.059 365.468,135.393 364.5,137.5C 364.975,134.918 364.308,132.918 362.5,131.5 Z"/></g>
</svg>
