<?xml version="1.0" standalone="no"?>
<!DOCTYPE svg PUBLIC "-//W3C//DTD SVG 20010904//EN"
 "http://www.w3.org/TR/2001/REC-SVG-20010904/DTD/svg10.dtd">
<svg version="1.0" xmlns="http://www.w3.org/2000/svg"
 width="2558.000000pt" height="1067.000000pt" viewBox="0 0 2558.000000 1067.000000"
 preserveAspectRatio="xMidYMid meet">

<g transform="translate(0.000000,1067.000000) scale(0.100000,-0.100000)"
fill="#000000" stroke="none">
<path d="M5625 10663 c-1972 -52 -3760 -505 -4772 -1209 -232 -162 -477 -394
-603 -572 -118 -166 -198 -349 -232 -528 -19 -102 -19 -5936 0 -6038 50 -263
182 -500 412 -740 430 -447 1125 -820 2041 -1096 850 -256 1725 -399 2829
-462 331 -19 14649 -19 14980 0 1103 63 1979 206 2829 462 916 276 1611 649
2041 1096 230 240 362 477 412 740 19 102 19 5936 0 6038 -50 263 -182 500
-412 740 -430 447 -1125 820 -2041 1096 -838 252 -1635 384 -2789 462 -131 9
-1975 12 -7385 13 -3965 0 -7255 0 -7310 -2z m-153 -2273 c32 -58 81 -157 109
-221 l52 -115 86 12 c507 76 1118 77 1714 3 53 -7 99 -10 100 -8 2 2 32 65 66
139 93 203 149 300 171 300 72 0 562 -116 826 -196 340 -102 847 -301 890
-348 70 -78 344 -538 490 -821 422 -821 656 -1615 751 -2555 32 -316 21 -1312
-15 -1377 -19 -33 -440 -313 -675 -447 -286 -164 -596 -314 -903 -436 -150
-60 -500 -180 -525 -180 -43 0 -456 665 -447 722 2 16 28 30 118 66 141 56
521 245 544 271 16 18 14 21 -59 81 l-76 62 -117 -51 c-622 -268 -1223 -402
-1872 -418 -711 -17 -1403 118 -2087 408 l-142 61 -77 -63 c-73 -60 -75 -62
-57 -80 29 -29 339 -185 505 -254 120 -50 154 -68 156 -85 4 -21 -60 -145
-161 -315 -90 -150 -257 -396 -275 -402 -17 -7 -173 42 -397 124 -517 191
-1075 482 -1520 792 -60 43 -129 90 -152 107 -49 34 -49 32 -63 238 -94 1366
174 2632 812 3831 100 188 297 521 388 654 65 97 32 77 350 208 256 106 611
222 910 298 160 41 472 105 500 102 21 -2 35 -20 82 -107z m6462 -2157 l116
-68 0 -357 0 -358 158 0 157 0 111 173 110 172 162 3 162 2 0 -37 c0 -32 -23
-74 -135 -251 l-134 -212 134 -212 c112 -177 135 -219 135 -251 l0 -37 -162 2
-162 3 -110 173 -111 172 -155 -2 -155 -3 -3 -172 -2 -173 -160 0 -160 0 0
750 0 750 44 0 c37 0 65 -12 160 -67z m8300 0 l116 -68 0 -182 c0 -101 1 -183
3 -183 1 0 27 7 57 16 84 24 355 30 449 10 149 -31 260 -104 315 -207 55 -101
59 -127 63 -486 l5 -333 -166 0 -166 0 0 293 c0 167 -4 308 -10 329 -13 46
-66 93 -122 109 -63 18 -259 13 -348 -9 l-75 -17 -3 -353 -2 -352 -160 0 -160
0 0 750 0 750 44 0 c37 0 65 -12 160 -67z m2890 0 l116 -68 0 -357 0 -358 158
0 157 0 111 173 110 172 162 3 162 2 0 -37 c0 -32 -23 -74 -135 -251 l-134
-212 134 -212 c112 -177 135 -219 135 -251 l0 -37 -162 2 -162 3 -110 173
-111 172 -155 -2 -155 -3 -3 -172 -2 -173 -160 0 -160 0 0 750 0 750 44 0 c37
0 65 -12 160 -67z m-784 -583 l0 -530 175 0 175 0 0 -160 0 -160 -585 0 -585
0 0 160 0 160 230 0 230 0 0 276 c0 151 -3 273 -7 271 -99 -59 -405 -237 -409
-237 -2 0 -4 78 -4 173 l0 172 343 202 c311 183 346 201 390 202 l47 1 0 -530z
m-8300 163 l85 -18 3 -144 3 -144 -33 7 c-279 59 -601 67 -651 18 -23 -24 -17
-66 10 -77 10 -4 86 -11 168 -17 289 -18 396 -48 482 -133 40 -41 55 -65 69
-110 32 -112 -1 -252 -74 -317 -51 -44 -146 -86 -236 -103 -146 -28 -457 -19
-723 21 l-43 7 0 145 0 145 33 -7 c244 -51 634 -65 706 -27 25 14 27 43 6 65
-18 18 -53 23 -255 36 -226 14 -324 43 -403 119 -58 54 -80 104 -85 193 -9
148 43 240 171 303 115 56 177 65 447 60 178 -2 256 -8 320 -22z m1304 2 c185
-52 256 -138 256 -309 0 -137 -33 -197 -133 -245 -35 -17 -103 -37 -151 -46
-111 -19 -403 -20 -500 -1 l-68 13 5 -39 c6 -46 37 -84 86 -104 104 -44 390
-34 649 22 l33 7 -3 -153 -3 -154 -29 -7 c-91 -25 -310 -41 -496 -37 -180 4
-201 6 -269 31 -140 50 -229 132 -274 254 -17 47 -21 87 -25 217 -5 176 5 250
45 334 51 107 172 195 316 227 90 21 479 14 561 -10z m1327 10 c195 -41 321
-159 358 -333 6 -29 11 -116 11 -192 0 -76 -5 -163 -11 -192 -37 -177 -164
-293 -364 -334 -61 -13 -119 -15 -264 -12 -170 4 -192 6 -260 31 -140 50 -229
132 -274 254 -17 47 -21 87 -25 217 -5 176 5 250 45 334 51 108 174 196 316
227 89 19 376 19 468 0z m1453 0 c143 -30 255 -105 310 -206 55 -101 59 -127
63 -486 l5 -333 -166 0 -166 0 0 293 c0 167 -4 308 -10 329 -13 46 -66 93
-122 109 -63 18 -259 13 -348 -9 l-75 -17 -3 -353 -2 -352 -160 0 -160 0 0
500 0 500 45 0 c32 0 58 -8 94 -30 l50 -31 48 25 c54 27 140 54 211 66 82 14
312 11 386 -5z m1549 -10 l97 -18 0 -155 0 -154 -27 7 c-231 59 -512 65 -605
13 -68 -38 -81 -69 -81 -208 0 -139 13 -170 81 -208 93 -52 374 -46 605 13
l27 7 0 -154 0 -155 -102 -19 c-82 -15 -149 -19 -328 -19 -211 0 -230 2 -299
24 -142 47 -238 134 -284 258 -17 47 -21 87 -25 217 -5 176 5 250 45 334 51
108 173 195 316 227 92 21 451 15 580 -10z"/>
<path d="M5125 5834 c-11 -2 -45 -9 -75 -15 -221 -44 -437 -239 -529 -477 -75
-197 -83 -425 -19 -622 87 -270 304 -480 554 -536 109 -24 261 -15 368 21 245
85 441 323 500 608 20 97 21 293 1 386 -70 333 -315 580 -626 630 -63 11 -135
12 -174 5z"/>
<path d="M7862 5830 c-309 -56 -545 -301 -617 -643 -20 -90 -19 -278 1 -375
63 -311 298 -565 582 -628 107 -24 260 -15 364 21 191 66 362 232 449 436 88
206 93 495 12 699 -96 239 -287 417 -512 475 -79 20 -209 27 -279 15z"/>
<path d="M14947 5580 c-83 -10 -147 -40 -170 -79 -32 -55 -28 -57 148 -71 138
-11 284 1 321 25 28 18 33 65 9 89 -33 33 -187 51 -308 36z"/>
<path d="M16358 5539 c-81 -9 -145 -41 -171 -87 -16 -28 -20 -53 -20 -152 0
-138 13 -170 80 -208 85 -47 301 -47 386 0 67 37 80 70 80 207 0 132 -12 168
-66 202 -60 37 -172 52 -289 38z"/>
</g>
</svg>
